<?xml version="1.0" encoding="UTF-8"?> <svg xmlns="http://www.w3.org/2000/svg" xmlns:xlink="http://www.w3.org/1999/xlink" width="24px" height="24px" viewBox="0 0 24 24" version="1.1"><!-- Generator: Sketch 64 (93537) - https://sketch.com --><title>Iconos/envelope</title><desc>Created with Sketch.</desc><g id="Iconos/envelope" stroke="none" stroke-width="1" fill="none" fill-rule="evenodd"><path d="M21.1453716,5 C21.4425445,5 21.5503066,5.03016832 21.6589486,5.08681813 C21.7675905,5.14346793 21.8528534,5.22659922 21.9109558,5.33252515 C21.9690581,5.43845107 22,5.5435191 22,5.83326269 L22,5.83326269 L22,18.1667373 C22,18.4564809 21.9690581,18.5615489 21.9109558,18.6674749 C21.8528534,18.7734008 21.7675905,18.8565321 21.6589486,18.9131819 C21.5503066,18.9698317 21.4425445,19 21.1453716,19 L21.1453716,19 L2.8546284,19 C2.55745549,19 2.44969341,18.9698317 2.34105143,18.9131819 C2.23240946,18.8565321 2.1471466,18.7734008 2.08904423,18.6674749 C2.03094187,18.5615489 2,18.4564809 2,18.1667373 L2,18.1667373 L2,5.83326269 C2,5.5435191 2.03094187,5.43845107 2.08904423,5.33252515 C2.1471466,5.22659922 2.23240946,5.14346793 2.34105143,5.08681813 C2.44969341,5.03016832 2.55745549,5 2.8546284,5 L2.8546284,5 Z M19.6055561,7 L4.39444388,7 C4.25728715,7 4.2075508,7.01550632 4.15740835,7.04462395 C4.1072659,7.07374159 4.06791381,7.11647053 4.04109734,7.17091577 C4.01428086,7.225361 4,7.27936529 4,7.42829161 L4,7.72603524 C4,7.89763536 4.0879987,8.05724746 4.23310715,8.14884514 L11.862412,12.9647373 C11.949027,13.0117542 12.050973,13.0117542 12.137588,12.9647373 L19.7668928,8.14884514 C19.9120013,8.05724746 20,7.89763536 20,7.72603524 L20,7.42829161 C20,7.27936529 19.9857191,7.225361 19.9589027,7.17091577 C19.9320862,7.11647053 19.8927341,7.07374159 19.8425916,7.04462395 C19.7924492,7.01550632 19.7427129,7 19.6055561,7 Z" id="envelope" fill="#000000" fill-rule="nonzero"></path></g></svg> 