<?xml version="1.0" encoding="UTF-8"?>
<svg width="2170px" height="464px" viewBox="0 0 2170 464" version="1.1" xmlns="http://www.w3.org/2000/svg" xmlns:xlink="http://www.w3.org/1999/xlink">
    <!-- Generator: Sketch 55.2 (78181) - https://sketchapp.com -->
    <title>ULPGC_MAXRED_01</title>
    <desc>Created with Sketch.</desc>
    <g id="max_reduccion" stroke="none" stroke-width="1" fill="none" fill-rule="evenodd">
        <g id="ULPGC_MAXRED_01">
            <rect id="_58027016" fill="none" x="0.0119913" y="0.00479652" width="2169.92" height="463.208"></rect>
            <path d="M1172.59,317.2 C1171.9065,317.2 1171.30813,316.944585 1170.7973,316.431358 C1170.28527,315.920529 1170.02866,315.322168 1170.02866,314.639858 L1170.02866,248.154158 C1170.02866,247.402304 1170.26848,246.771558 1170.74574,246.258338 C1171.22419,245.74631 1171.83815,245.490895 1172.59,245.490895 L1220.9437,245.490895 C1221.69315,245.490895 1222.3263,245.74631 1222.83832,246.258338 C1223.35034,246.771565 1223.60696,247.402308 1223.60696,248.154158 L1223.60696,258.295158 C1223.60696,259.047012 1223.35034,259.660968 1222.83832,260.138218 C1222.32629,260.619069 1221.69315,260.857696 1220.9437,260.857696 L1188.572,260.857696 L1188.572,273.867096 L1218.6893,273.867096 C1219.43995,273.867096 1220.0719,274.122511 1220.58392,274.635738 C1221.09714,275.147766 1221.35256,275.778508 1221.35256,276.531558 L1221.35256,285.852388 C1221.35256,286.604242 1221.09714,287.236188 1220.58392,287.749408 C1220.07189,288.260237 1219.43995,288.515652 1218.6893,288.515652 L1188.572,288.515652 L1188.572,301.834352 L1221.7627,301.834352 C1222.51335,301.834352 1223.1453,302.090966 1223.65732,302.602994 C1224.16935,303.113823 1224.42716,303.745764 1224.42716,304.497614 L1224.42716,314.639814 C1224.42716,315.390469 1224.16935,316.004424 1223.65732,316.482874 C1223.14529,316.961327 1222.51335,317.2 1221.7627,317.2 L1172.59,317.2 L1172.59,317.2 Z M1126.9499,301.83445 C1131.25358,301.83445 1134.43007,300.81034 1136.47818,298.76103 C1138.52749,296.71172 1139.6187,293.4345 1139.7566,288.92577 C1139.8921,286.94601 1139.96045,284.38467 1139.96045,281.24415 C1139.96045,278.10243 1139.8921,275.57467 1139.7566,273.66205 C1139.6187,269.29002 1138.44235,266.06436 1136.22277,263.98148 C1134.00318,261.89739 1130.74035,260.85775 1126.43787,260.85775 L1116.70693,260.85775 L1116.70693,301.83445 L1126.94993,301.83445 L1126.9499,301.83445 Z M1100.0091,317.2 C1099.3256,317.2 1098.72723,316.944585 1098.2164,316.431358 C1097.70437,315.920529 1097.44776,315.322168 1097.44776,314.639858 L1097.44776,248.154158 C1097.44776,247.402304 1097.68638,246.771558 1098.16484,246.258338 C1098.64329,245.74631 1099.25725,245.490895 1100.0091,245.490895 L1126.9499,245.490895 C1137.0598,245.490895 1144.9141,247.897545 1150.5128,252.712055 C1156.11274,257.527755 1159.0506,264.441955 1159.324,273.456955 C1159.39115,275.437915 1159.42472,278.068805 1159.42472,281.344825 C1159.42472,284.624445 1159.39115,287.218165 1159.324,289.131975 C1158.64049,307.844375 1148.0198,317.2 1127.4643,317.2 L1100.009,317.2 L1100.0091,317.2 Z M1035.93,318.22406 C1029.30481,318.22406 1023.6713,317.268354 1019.0259,315.35694 C1014.38407,313.44433 1010.86582,310.91776 1008.4748,307.77604 C1006.08613,304.63312 1004.82225,301.2204 1004.68435,297.53064 C1004.68435,296.917885 1004.90619,296.40466 1005.34987,295.99575 C1005.79474,295.585648 1006.32476,295.380597 1006.93872,295.380597 L1020.56322,295.380597 C1021.38342,295.380597 1022.04894,295.516099 1022.56097,295.790699 C1023.07419,296.064101 1023.63659,296.541354 1024.25174,297.223659 C1025.13909,298.862869 1026.52169,300.210689 1028.40073,301.270719 C1030.27857,302.329549 1032.78835,302.858369 1035.93006,302.858369 C1039.61738,302.858369 1042.45213,302.294778 1044.43189,301.167599 C1046.41405,300.041619 1047.40333,298.487549 1047.40333,296.507779 C1047.40333,295.071219 1046.8913,293.894879 1045.86725,292.972749 C1044.84199,292.051817 1043.20398,291.231609 1040.94962,290.513339 C1038.69526,289.79626 1035.45281,288.995239 1031.21748,288.106689 C1022.95308,286.467479 1016.77278,283.974489 1012.67538,280.627719 C1008.57795,277.282149 1006.52984,272.502419 1006.52984,266.287319 C1006.52984,262.051989 1007.70619,258.278329 1010.06248,254.966319 C1012.41877,251.654319 1015.76674,249.076199 1020.10278,247.231929 C1024.44003,245.388869 1029.47638,244.465539 1035.21298,244.465539 C1041.22302,244.465539 1046.43088,245.507579 1050.83528,247.590469 C1055.23968,249.673359 1058.62123,252.268269 1060.97748,255.376419 C1063.33377,258.483359 1064.58086,261.539949 1064.71637,264.544959 C1064.71637,265.160112 1064.51132,265.687729 1064.10241,266.132609 C1063.69231,266.576287 1063.18028,266.798126 1062.56513,266.798126 L1048.22353,266.798126 C1046.72102,266.798126 1045.56026,266.182973 1044.74006,264.953866 C1044.32996,263.520906 1043.27233,262.307386 1041.56476,261.318106 C1039.856,260.327625 1037.73954,259.832386 1035.21297,259.832386 C1032.34465,259.832386 1030.12506,260.344414 1028.5542,261.368466 C1026.98454,262.394916 1026.19791,263.895036 1026.19791,265.877196 C1026.19791,267.856956 1027.22197,269.411026 1029.27128,270.537016 C1031.31939,271.665396 1035.14342,272.808166 1040.74458,273.968926 C1047.16472,275.130886 1052.26938,276.581826 1056.05988,278.324166 C1059.85153,280.064106 1062.6503,282.317266 1064.45978,285.084856 C1066.27047,287.850046 1067.17461,291.351506 1067.17461,295.585656 C1067.17461,300.228686 1065.84478,304.257766 1063.18031,307.672856 C1060.51584,311.087976 1056.82852,313.700876 1052.11591,315.510366 C1047.40333,317.319856 1042.00841,318.22406 1035.93001,318.22406 L1035.93,318.22406 Z M956.8942,289.64276 L975.1294,289.64276 L966.01242,263.52096 L956.8942,289.64276 L956.8942,289.64276 Z M932.1022,317.19996 C931.556596,317.19996 931.06255,316.978121 930.61888,316.534443 C930.175202,316.090765 929.952164,315.594325 929.952164,315.048723 C929.952164,314.63982 929.98574,314.331644 930.055289,314.127791 L953.923989,248.461091 C954.607493,246.480131 955.973299,245.490851 958.021419,245.490851 L974.002219,245.490851 C976.051529,245.490851 977.417339,246.480133 978.100839,248.461091 L1001.96834,314.127791 C1002.03789,314.331643 1002.07146,314.639819 1002.07146,315.048723 C1002.07146,315.594327 1001.85082,316.090763 1001.40595,316.534443 C1000.96227,316.978121 1000.46823,317.19996 999.921427,317.19996 L986.603927,317.19996 C984.963517,317.19996 983.802757,316.449305 983.119257,314.9468 L979.433137,305.00961 L952.591837,305.00961 L948.904517,314.9468 C948.221013,316.44931 947.059057,317.19996 945.422247,317.19996 L932.102347,317.19996 L932.1022,317.19996 Z M854.7068,317.19996 C853.954946,317.19996 853.3242,316.961333 852.81218,316.482881 C852.298953,316.004428 852.043538,315.390471 852.043538,314.639821 L852.043538,248.154121 C852.043538,247.402267 852.298953,246.771521 852.81218,246.258301 C853.324208,245.746273 853.95495,245.490858 854.7068,245.490858 L866.282,245.490858 C867.98956,245.490858 869.21987,246.241513 869.97172,247.744018 L887.59172,279.296718 L905.31482,247.744018 C906.065475,246.241508 907.29458,245.490858 909.00094,245.490858 L920.57854,245.490858 C921.329195,245.490858 921.96114,245.746273 922.47197,246.258301 C922.985197,246.771528 923.241811,247.402271 923.241811,248.154121 L923.241811,314.639821 C923.241811,315.390476 922.985197,316.004431 922.47197,316.482881 C921.961141,316.961334 921.3292,317.19996 920.57854,317.19996 L907.56794,317.19996 C906.884436,317.19996 906.28727,316.944545 905.77524,316.431318 C905.262013,315.920489 905.005399,315.322128 905.005399,314.639818 L905.005399,277.350518 L893.943399,297.633818 C893.054844,299.204678 891.859309,299.990108 890.357999,299.990108 L884.825219,299.990108 C883.459409,299.990108 882.263879,299.204678 881.239819,297.633818 L870.278619,277.350518 L870.278619,314.639818 C870.278619,315.390473 870.022005,316.004428 869.509977,316.482878 C868.999148,316.961331 868.366007,317.19996 867.615357,317.19996 L854.706757,317.19996 L854.7068,317.19996 Z M794.2143,317.19996 C793.531995,317.19996 792.93363,316.944545 792.4216,316.431318 C791.908373,315.920489 791.652958,315.322128 791.652958,314.639818 L791.652958,248.050918 C791.652958,247.300263 791.908373,246.685108 792.4216,246.207858 C792.933628,245.728206 793.53199,245.490779 794.2143,245.490779 L808.5559,245.490779 C809.307754,245.490779 809.92171,245.728207 810.40016,246.207858 C810.878613,246.685112 811.117239,247.300268 811.117239,248.050918 L811.117239,301.116018 L841.849739,301.116018 C842.601593,301.116018 843.232339,301.373831 843.745559,301.885859 C844.257587,302.396688 844.514201,303.029829 844.514201,303.779289 L844.514201,314.639789 C844.514201,315.390444 844.257587,316.004399 843.745559,316.482849 C843.232332,316.961302 842.601589,317.19996 841.849739,317.19996 L794.214339,317.19996 L794.2143,317.19996 Z M739.7642,289.64276 L757.9994,289.64276 L748.88242,263.52096 L739.7642,289.64276 L739.7642,289.64276 Z M714.9734,317.19996 C714.426597,317.19996 713.93256,316.978121 713.48888,316.534443 C713.045202,316.090765 712.822164,315.594325 712.822164,315.048723 C712.822164,314.63982 712.85574,314.331644 712.925289,314.127791 L736.793989,248.461091 C737.476294,246.480131 738.843299,245.490851 740.891419,245.490851 L756.873419,245.490851 C758.921529,245.490851 760.287339,246.480133 760.969649,248.461091 L784.839549,314.127791 C784.907899,314.331643 784.941475,314.639819 784.941475,315.048723 C784.941475,315.594327 784.720835,316.090763 784.275958,316.534443 C783.83228,316.978121 783.338239,317.19996 782.791438,317.19996 L769.473938,317.19996 C767.834728,317.19996 766.672768,316.449305 765.990468,314.9468 L762.301948,305.00961 L735.461848,305.00961 L731.774528,314.9468 C731.092223,316.44931 729.930268,317.19996 728.291058,317.19996 L714.973558,317.19996 L714.9734,317.19996 Z M681.5237,277.86256 C684.32487,277.86256 686.52767,277.127494 688.1321,275.65976 C689.73654,274.19203 690.53995,272.024 690.53995,269.15448 C690.53995,266.49121 689.804884,264.33997 688.33715,262.70076 C686.86942,261.06275 684.59706,260.24254 681.5237,260.24254 L670.0504,260.24254 L670.0504,277.86256 L681.5237,277.86256 L681.5237,277.86256 Z M653.0456,317.19996 C652.363295,317.19996 651.76493,316.944545 651.2529,316.431318 C650.740872,315.920489 650.484258,315.322128 650.484258,314.639818 L650.484258,248.154118 C650.484258,247.402264 650.724084,246.771518 651.201337,246.258298 C651.67979,245.74627 652.293747,245.490855 653.045597,245.490855 L682.038197,245.490855 C690.915357,245.490855 697.881097,247.505395 702.935397,251.534465 C707.989727,255.563545 710.516297,261.471655 710.516297,269.256365 C710.516297,277.042315 707.989727,282.865265 702.935397,286.722865 C697.881067,290.581665 690.915297,292.512265 682.038197,292.512265 L670.359897,292.512265 L670.359897,314.639765 C670.359897,315.32207 670.120071,315.920435 669.640419,316.431265 C669.163165,316.944492 668.549209,317.19996 667.797359,317.19996 L653.045659,317.19996 L653.0456,317.19996 Z M588.9665,318.22402 C582.34251,318.22402 576.7078,317.268314 572.0648,315.3569 C567.42057,313.44429 563.90232,310.91772 561.5125,307.776 C559.12263,304.63308 557.85875,301.22036 557.72325,297.5306 C557.72325,296.917845 557.94389,296.40462 558.387568,295.99571 C558.832445,295.585608 559.36246,295.380557 559.976418,295.380557 L573.600918,295.380557 C574.419924,295.380557 575.086638,295.516059 575.598668,295.790659 C576.110696,296.064061 576.673088,296.541314 577.289438,297.223619 C578.176794,298.862829 579.559388,300.210649 581.438428,301.270679 C583.315068,302.329509 585.824848,302.858329 588.966568,302.858329 C592.656288,302.858329 595.488638,302.294738 597.469598,301.167559 C599.450558,300.041579 600.441038,298.487509 600.441038,296.507739 C600.441038,295.071179 599.927811,293.894839 598.904958,292.972709 C597.879698,292.051777 596.241688,291.231569 593.987328,290.513299 C591.732968,289.79622 588.489318,288.995199 584.255188,288.106649 C575.990788,286.467439 569.811688,283.974449 565.711888,280.627679 C561.615658,277.282109 559.566348,272.502379 559.566348,266.287279 C559.566348,262.051949 560.743898,258.278289 563.100178,254.966279 C565.456468,251.654279 568.803238,249.076159 573.139278,247.231889 C577.476528,245.388829 582.514078,244.465499 588.250678,244.465499 C594.259518,244.465499 599.467378,245.507539 603.874178,247.590429 C608.277378,249.673319 611.657728,252.268229 614.015178,255.376379 C616.370268,258.483319 617.617368,261.539909 617.754068,264.544919 C617.754068,265.160072 617.549017,265.687689 617.138915,266.132569 C616.728813,266.576247 616.217983,266.798086 615.601635,266.798086 L601.261235,266.798086 C599.757525,266.798086 598.596765,266.182933 597.777765,264.953826 C597.368862,263.520866 596.308835,262.307346 594.601275,261.318066 C592.893715,260.327585 590.777255,259.832346 588.250685,259.832346 C585.381165,259.832346 583.161575,260.344374 581.590715,261.368426 C580.021055,262.394876 579.235625,263.894996 579.235625,265.877156 C579.235625,267.856916 580.258485,269.410986 582.307795,270.536976 C584.358305,271.665356 588.182335,272.808126 593.782295,273.968886 C600.201235,275.130846 605.307095,276.581786 609.096395,278.324126 C612.888045,280.064066 615.688015,282.317226 617.498695,285.084816 C619.308185,287.850006 620.212325,291.351466 620.212325,295.585616 C620.212325,300.228646 618.881295,304.257726 616.218025,307.672816 C613.553555,311.087936 609.865035,313.700836 605.152425,315.510326 C600.441045,317.319816 595.044925,318.22402 588.966525,318.22402 L588.9665,318.22402 Z M509.9307,289.64272 L528.1671,289.64272 L519.04892,263.52092 L509.9307,289.64272 L509.9307,289.64272 Z M485.1411,317.19992 C484.593098,317.19992 484.09906,316.978081 483.65538,316.534403 C483.211702,316.090725 482.989863,315.594285 482.989863,315.048683 C482.989863,314.63978 483.023439,314.331604 483.091789,314.127751 L506.961689,248.461051 C507.643994,246.480091 509.009799,245.490811 511.057919,245.490811 L527.041119,245.490811 C529.088029,245.490811 530.453839,246.480093 531.137349,248.461051 L555.006049,314.127751 C555.075598,314.331603 555.109174,314.639779 555.109174,315.048683 C555.109174,315.594287 554.887335,316.090723 554.442458,316.534403 C553.99878,316.978081 553.504739,317.19992 552.957938,317.19992 L539.640438,317.19992 C538.002428,317.19992 536.839268,316.449265 536.155768,314.94676 L532.469648,305.00957 L505.629548,305.00957 L501.942228,314.94676 C501.257525,316.44927 500.096768,317.19992 498.458758,317.19992 L485.141258,317.19992 L485.1411,317.19992 Z M431.3062,317.19992 C430.623895,317.19992 430.02433,316.944505 429.5135,316.431278 C429.001472,315.920449 428.744858,315.322088 428.744858,314.639778 L428.744858,248.050878 C428.744858,247.300223 429.001472,246.685068 429.5135,246.207818 C430.024329,245.728166 430.62389,245.490739 431.3062,245.490739 L445.6478,245.490739 C446.400853,245.490739 447.01361,245.728167 447.49086,246.207818 C447.970512,246.685072 448.210338,247.300228 448.210338,248.050878 L448.210338,301.115978 L478.941638,301.115978 C479.693492,301.115978 480.325438,301.373791 480.837458,301.885819 C481.350685,302.396648 481.6061,303.029789 481.6061,303.779249 L481.6061,314.639749 C481.6061,315.390404 481.350685,316.004359 480.837458,316.482809 C480.32543,316.961262 479.693488,317.19992 478.941638,317.19992 L431.306238,317.19992 L431.3062,317.19992 Z M1286.2512,318.224045 C1276.34759,318.224045 1268.5964,315.81733 1262.9965,311.00282 C1257.39656,306.18831 1254.42512,299.30652 1254.08457,290.35982 C1254.01502,288.44841 1253.98144,285.34026 1253.98144,281.03779 C1253.98144,276.73531 1254.01502,273.59359 1254.08457,271.61383 C1254.35677,263.00768 1257.345,256.33213 1263.04686,251.58593 C1268.75112,246.83858 1276.48426,244.4643 1286.25126,244.4643 C1292.8069,244.4643 1298.52436,245.52313 1303.41076,247.64199 C1308.29362,249.75845 1312.01571,252.47328 1314.57586,255.78528 C1317.1384,259.09848 1318.48622,262.49561 1318.62172,265.98028 C1318.62172,266.593035 1318.40228,267.12305 1317.9562,267.56673 C1317.51252,268.010408 1316.98371,268.233446 1316.36855,268.233446 L1300.48965,268.233446 C1299.80735,268.233446 1299.27853,268.113533 1298.902,267.873707 C1298.52428,267.63508 1298.16933,267.27654 1297.82638,266.798087 C1297.00738,264.886677 1295.69313,263.247467 1293.88364,261.880457 C1292.07415,260.514647 1289.5284,259.832347 1286.25118,259.832347 C1278.32853,259.832347 1274.23108,263.929777 1273.95768,272.125847 C1273.88933,274.038457 1273.85456,276.975127 1273.85456,280.934657 C1273.85456,284.896577 1273.88933,287.866827 1273.95768,289.847787 C1274.23108,298.521087 1278.39686,302.858387 1286.45618,302.858387 C1290.4169,302.858387 1293.55743,301.867906 1295.88014,299.886947 C1298.20285,297.907187 1299.36241,294.902167 1299.36241,290.873087 L1299.36241,289.028827 L1290.24663,289.028827 C1289.49478,289.028827 1288.86283,288.772213 1288.35081,288.260185 C1287.83878,287.749356 1287.58217,287.116215 1287.58217,286.366755 L1287.58217,278.374555 C1287.58217,277.625099 1287.83878,276.991955 1288.35081,276.478735 C1288.86284,275.967906 1289.49478,275.711292 1290.24663,275.711292 L1316.26653,275.711292 C1317.01839,275.711292 1317.64913,275.967906 1318.16115,276.478735 C1318.67438,276.991962 1318.93099,277.625105 1318.93099,278.374555 L1318.93099,290.257955 C1318.93099,296.064145 1317.58197,301.065755 1314.88393,305.266255 C1312.18589,309.465605 1308.37745,312.675675 1303.46223,314.895265 C1298.5434,317.114855 1292.80673,318.224045 1286.25113,318.224045 L1286.2512,318.224045 Z M1331.7881,317.200022 C1331.1046,317.200022 1330.50623,316.944505 1329.9954,316.431278 C1329.48217,315.920449 1329.22676,315.322088 1329.22676,314.639778 L1329.22676,248.154078 C1329.22676,247.402224 1329.46538,246.771478 1329.94264,246.258258 C1330.42109,245.74623 1331.03625,245.490815 1331.7881,245.490815 L1359.9593,245.490815 C1368.97436,245.490815 1376.0264,247.538925 1381.1143,251.636355 C1386.20101,255.734975 1388.74556,261.506395 1388.74556,268.950555 C1388.74556,273.730285 1387.63637,277.794135 1385.41558,281.140955 C1383.19719,284.486525 1380.14061,287.082645 1376.24704,288.925705 L1390.07664,313.922805 C1390.28289,314.331708 1390.38481,314.707036 1390.38481,315.048785 C1390.38481,315.594389 1390.17976,316.090825 1389.76966,316.534505 C1389.35956,316.978183 1388.84753,317.200022 1388.23358,317.200022 L1373.79008,317.200022 C1371.80792,317.200022 1370.40734,316.277891 1369.58833,314.434832 L1358.31893,292.205332 L1348.48607,292.205332 L1348.48607,314.639832 C1348.48607,315.390487 1348.22826,316.005642 1347.71743,316.482892 C1347.2054,316.961345 1346.57226,317.200022 1345.82281,317.200022 L1331.78821,317.200022 L1331.7881,317.200022 Z M1359.8561,277.14422 C1362.79277,277.14422 1365.03034,276.411552 1366.56643,274.94262 C1368.10371,273.47489 1368.87236,271.44236 1368.87236,268.84625 C1368.87236,266.25133 1368.10372,264.16845 1366.56643,262.59759 C1365.03035,261.02673 1362.79277,260.2425 1359.8561,260.2425 L1348.486,260.2425 L1348.486,277.14422 L1359.8561,277.14422 L1359.8561,277.14422 Z M1395.3539,317.19992 C1394.8071,317.19992 1394.31306,316.978081 1393.86938,316.534403 C1393.4257,316.090725 1393.20146,315.594285 1393.20146,315.048683 C1393.20146,314.63978 1393.23624,314.331604 1393.30579,314.127751 L1417.17449,248.461051 C1417.85799,246.480091 1419.2238,245.490811 1421.27311,245.490811 L1437.25391,245.490811 C1439.30202,245.490811 1440.66783,246.480093 1441.35134,248.461051 L1465.22004,314.127751 C1465.28839,314.331603 1465.32196,314.639779 1465.32196,315.048683 C1465.32196,315.594287 1465.10132,316.090723 1464.65645,316.534403 C1464.21277,316.978081 1463.71873,317.19992 1463.17313,317.19992 L1449.85443,317.19992 C1448.21522,317.19992 1447.05446,316.449265 1446.37096,314.94676 L1442.68364,305.00957 L1415.84234,305.00957 L1412.15622,314.94676 C1411.47271,316.44927 1410.31076,317.19992 1408.67275,317.19992 L1395.35405,317.19992 L1395.3539,317.19992 Z M1420.1459,289.64272 L1438.3811,289.64272 L1429.26292,263.52092 L1420.1459,289.64272 L1420.1459,289.64272 Z M1474.596,317.199967 C1473.9125,317.199967 1473.31413,316.944505 1472.8033,316.431278 C1472.28887,315.920449 1472.03346,315.322088 1472.03346,314.639778 L1472.03346,248.154078 C1472.03346,247.402224 1472.27209,246.771478 1472.74934,246.258258 C1473.23019,245.74623 1473.84295,245.490815 1474.596,245.490815 L1486.17,245.490815 C1487.74206,245.490815 1488.90282,246.139544 1489.65347,247.437005 L1513.83147,285.647305 L1513.83147,248.154105 C1513.83147,247.402251 1514.0689,246.771505 1514.54735,246.258285 C1515.0246,245.746257 1515.64096,245.490815 1516.39041,245.490815 L1529.40101,245.490815 C1530.15406,245.490815 1530.76802,245.746257 1531.24527,246.258285 C1531.72492,246.771512 1531.96355,247.402255 1531.96355,248.154105 L1531.96355,314.536705 C1531.96355,315.288559 1531.72492,315.920505 1531.24527,316.431325 C1530.76801,316.944552 1530.15406,317.199967 1529.40101,317.199967 L1517.82701,317.199967 C1516.25495,317.199967 1515.09419,316.551238 1514.34234,315.254977 L1490.26984,278.579577 L1490.26984,314.639777 C1490.26984,315.390432 1490.01322,316.005587 1489.5,316.482837 C1488.98917,316.96129 1488.35603,317.199967 1487.60538,317.199967 L1474.59598,317.199967 L1474.596,317.199967 Z M1596.043,318.22398 C1586.27489,318.22398 1578.6101,315.86769 1573.0437,311.15391 C1567.47734,306.44373 1564.52388,299.54631 1564.18333,290.46291 C1564.11378,288.61985 1564.0802,285.61363 1564.0802,281.44785 C1564.0802,277.21492 1564.11378,274.14035 1564.18333,272.22774 C1564.52388,263.35058 1567.51211,256.50234 1573.14562,251.68784 C1578.78033,246.87333 1586.41282,244.46428 1596.04302,244.46428 C1602.12021,244.46428 1607.56662,245.45596 1612.38112,247.43692 C1617.19563,249.41788 1621.00406,252.285 1623.80402,256.04187 C1626.60399,259.79874 1628.07292,264.23792 1628.20962,269.36057 C1628.20962,269.973325 1627.98778,270.48655 1627.5441,270.89546 C1627.10042,271.305562 1626.57041,271.509414 1625.95525,271.509414 L1611.40865,271.509414 C1610.45295,271.509414 1609.75025,271.32235 1609.30777,270.947022 C1608.86409,270.571694 1608.47078,269.872602 1608.13022,268.846142 C1607.17452,265.500572 1605.72237,263.161072 1603.77738,261.830032 C1601.82999,260.497802 1599.25186,259.832282 1596.04299,259.832282 C1588.32539,259.832282 1584.32989,264.134762 1584.05529,272.739682 C1583.98814,274.585142 1583.95337,277.418682 1583.95337,281.243912 C1583.95337,285.067932 1583.98814,287.969832 1584.05529,289.950792 C1584.32989,298.555742 1588.32539,302.858192 1596.04299,302.858192 C1599.18351,302.858192 1601.76284,302.175887 1603.77738,300.810082 C1605.79192,299.443072 1607.24167,297.121562 1608.13022,293.844342 C1608.40362,292.817892 1608.77895,292.118792 1609.2574,291.743462 C1609.73466,291.368134 1610.45293,291.179871 1611.40864,291.179871 L1625.95524,291.179871 C1626.5704,291.179871 1627.10041,291.384922 1627.54409,291.795024 C1627.98777,292.205126 1628.20962,292.715956 1628.20962,293.331104 C1628.07291,298.453784 1626.60398,302.891764 1623.80401,306.648604 C1621.00404,310.405474 1617.19561,313.273794 1612.38111,315.254754 C1607.5666,317.233314 1602.12011,318.22398 1596.04301,318.22398 L1596.043,318.22398 Z M1633.5889,317.19992 C1633.0421,317.19992 1632.54686,316.978081 1632.10318,316.534403 C1631.6595,316.090725 1631.43766,315.594285 1631.43766,315.048683 C1631.43766,314.63978 1631.47124,314.331604 1631.53959,314.127751 L1655.40949,248.461051 C1656.09179,246.480091 1657.4576,245.490811 1659.50572,245.490811 L1675.48892,245.490811 C1677.53583,245.490811 1678.90284,246.480093 1679.58515,248.461051 L1703.45505,314.127751 C1703.5234,314.331603 1703.55697,314.639779 1703.55697,315.048683 C1703.55697,315.594287 1703.33633,316.090723 1702.89146,316.534403 C1702.44778,316.978081 1701.95254,317.19992 1701.40574,317.19992 L1688.08944,317.19992 C1686.45023,317.19992 1685.28707,316.449265 1684.60477,314.94676 L1680.91745,305.00957 L1654.07735,305.00957 L1650.39003,314.94676 C1649.70772,316.44927 1648.54457,317.19992 1646.90656,317.19992 L1633.58906,317.19992 L1633.5889,317.19992 Z M1658.3797,289.64272 L1676.6149,289.64272 L1667.49672,263.52092 L1658.3797,289.64272 L1658.3797,289.64272 Z M1712.8286,317.199967 C1712.14629,317.199967 1711.54793,316.944505 1711.0359,316.431278 C1710.52387,315.920449 1710.26726,315.322088 1710.26726,314.639778 L1710.26726,248.154078 C1710.26726,247.402224 1710.50708,246.771478 1710.98434,246.258258 C1711.46279,245.74623 1712.07795,245.490815 1712.8286,245.490815 L1724.405,245.490815 C1725.97586,245.490815 1727.13662,246.139544 1727.88847,247.437005 L1752.06537,285.647305 L1752.06537,248.154105 C1752.06537,247.402251 1752.30399,246.771505 1752.78245,246.258285 C1753.2597,245.746257 1753.87486,245.490815 1754.62551,245.490815 L1767.63611,245.490815 C1768.38916,245.490815 1769.00192,245.746257 1769.47917,246.258285 C1769.95882,246.771512 1770.19864,247.402255 1770.19864,248.154105 L1770.19864,314.536705 C1770.19864,315.288559 1769.95882,315.920505 1769.47917,316.431325 C1769.00191,316.944552 1768.38916,317.199967 1767.63611,317.199967 L1756.06091,317.199967 C1754.48885,317.199967 1753.32809,316.551238 1752.57624,315.254977 L1728.50254,278.579577 L1728.50254,314.639777 C1728.50254,315.390432 1728.24712,316.005587 1727.73389,316.482837 C1727.22306,316.96129 1726.59112,317.199967 1725.84166,317.199967 L1712.82866,317.199967 L1712.8286,317.199967 Z M1779.0589,317.19992 C1778.5133,317.19992 1778.01925,316.978081 1777.57558,316.534403 C1777.1319,316.090725 1776.90886,315.594285 1776.90886,315.048683 C1776.90886,314.63978 1776.94244,314.331604 1777.01079,314.127751 L1800.88069,248.461051 C1801.56419,246.480091 1802.93,245.490811 1804.97692,245.490811 L1820.95892,245.490811 C1823.00703,245.490811 1824.37404,246.480093 1825.05635,248.461051 L1848.92505,314.127751 C1848.9934,314.331603 1849.02817,314.639779 1849.02817,315.048683 C1849.02817,315.594287 1848.80753,316.090723 1848.36266,316.534403 C1847.91898,316.978081 1847.42374,317.19992 1846.87694,317.19992 L1833.56064,317.19992 C1831.92023,317.19992 1830.75827,316.449265 1830.07597,314.94676 L1826.38865,305.00957 L1799.54855,305.00957 L1795.86003,314.94676 C1795.17772,316.44927 1794.01577,317.19992 1792.37776,317.19992 L1779.05906,317.19992 L1779.0589,317.19992 Z M1803.8509,289.64272 L1822.0861,289.64272 L1812.96912,263.52092 L1803.8509,289.64272 L1803.8509,289.64272 Z M1858.2998,317.200022 C1857.61749,317.200022 1857.01913,316.944505 1856.5071,316.431278 C1855.99507,315.920449 1855.73966,315.322088 1855.73966,314.639778 L1855.73966,248.154078 C1855.73966,247.402224 1855.97828,246.771478 1856.45554,246.258258 C1856.93399,245.74623 1857.54795,245.490815 1858.2998,245.490815 L1886.4722,245.490815 C1895.48726,245.490815 1902.5393,247.538925 1907.626,251.636355 C1912.71391,255.734975 1915.25846,261.506395 1915.25846,268.950555 C1915.25846,273.730285 1914.14807,277.794135 1911.92968,281.140955 C1909.71009,284.486525 1906.65351,287.082645 1902.75994,288.925705 L1916.58954,313.922805 C1916.79459,314.331708 1916.89771,314.707036 1916.89771,315.048785 C1916.89771,315.594389 1916.69266,316.090825 1916.28256,316.534505 C1915.87246,316.978183 1915.35923,317.200022 1914.74648,317.200022 L1900.30298,317.200022 C1898.32082,317.200022 1896.92024,316.277891 1896.10123,314.434832 L1884.83303,292.205332 L1874.99897,292.205332 L1874.99897,314.639832 C1874.99897,315.390487 1874.74116,316.005642 1874.23033,316.482892 C1873.7183,316.961345 1873.08516,317.200022 1872.33571,317.200022 L1858.29991,317.200022 L1858.2998,317.200022 Z M1886.369,277.14422 C1889.30447,277.14422 1891.54324,276.411552 1893.07933,274.94262 C1894.61661,273.47489 1895.38406,271.44236 1895.38406,268.84625 C1895.38406,266.25133 1894.61662,264.16845 1893.07933,262.59759 C1891.54325,261.02673 1889.30447,260.2425 1886.369,260.2425 L1874.9989,260.2425 L1874.9989,277.14422 L1886.369,277.14422 L1886.369,277.14422 Z M1928.4237,317.19992 C1927.7402,317.19992 1927.14183,316.944505 1926.631,316.431278 C1926.11897,315.920449 1925.86236,315.322088 1925.86236,314.639778 L1925.86236,248.050878 C1925.86236,247.300223 1926.11897,246.685068 1926.631,246.207818 C1927.14183,245.728166 1927.74019,245.490739 1928.4237,245.490739 L1943.0735,245.490739 C1943.82415,245.490739 1944.43931,245.728167 1944.91776,246.207818 C1945.39501,246.685072 1945.63364,247.300228 1945.63364,248.050878 L1945.63364,314.639778 C1945.63364,315.322083 1945.39501,315.920448 1944.91776,316.431278 C1944.43931,316.944505 1943.82415,317.19992 1943.0735,317.19992 L1928.4237,317.19992 Z M1954.4964,317.19992 C1953.9496,317.19992 1953.45436,316.978081 1953.01068,316.534403 C1952.567,316.090725 1952.34516,315.594285 1952.34516,315.048683 C1952.34516,314.63978 1952.37994,314.331604 1952.44709,314.127751 L1976.31699,248.461051 C1976.99929,246.480091 1978.3651,245.490811 1980.41322,245.490811 L1996.39642,245.490811 C1998.44333,245.490811 1999.81034,246.480093 2000.49265,248.461051 L2024.36255,314.127751 C2024.4309,314.331603 2024.46447,314.639779 2024.46447,315.048683 C2024.46447,315.594287 2024.24264,316.090723 2023.79776,316.534403 C2023.35408,316.978081 2022.86004,317.19992 2022.31324,317.19992 L2008.99694,317.19992 C2007.35773,317.19992 2006.19457,316.449265 2005.51227,314.94676 L2001.82495,305.00957 L1974.98485,305.00957 L1971.29753,314.94676 C1970.61522,316.44927 1969.45207,317.19992 1967.81406,317.19992 L1954.49656,317.19992 L1954.4964,317.19992 Z M1979.2872,289.64272 L1997.5224,289.64272 L1988.40422,263.52092 L1979.2872,289.64272 L1979.2872,289.64272 Z M290.8072,145.46862 C333.8679,145.46862 355.3983,177.76492 355.3983,215.44272 C355.933112,232.62862 355.3983,242.40752 355.3983,263.88752 C348.99015,263.88752 339.2508,263.88752 339.2508,263.88752 C339.2508,263.88752 325.0603,294.57802 350.0166,312.33112 C350.0166,313.40554 257.9834,342.68712 236.9796,253.12172 C236.9796,254.19494 284.5647,283.24262 312.3377,274.65212 C312.3377,274.65212 323.1622,234.47532 315.11728,210.16652 C304.70528,178.70732 258.74258,187.52812 237.01558,200.15862 C183.00318,231.56142 165.88318,280.24252 145.47398,317.71362 C145.47398,317.71362 158.87428,145.46862 290.80698,145.46862 L290.8072,145.46862 Z" id="_58026224" fill="#0066A1" fill-rule="nonzero"></path>
            <path d="M1629.53,216.967 C1628.84769,216.967 1628.26852,216.727174 1627.79126,216.249921 C1627.31161,215.770269 1627.07418,215.191091 1627.07418,214.507581 L1627.07418,147.816781 C1627.07418,147.066126 1627.29482,146.450971 1627.7373,145.973721 C1628.18218,145.495268 1628.78054,145.256642 1629.53,145.256642 L1674.7084,145.256642 C1675.46145,145.256642 1676.07421,145.495269 1676.55266,145.973721 C1677.03111,146.450975 1677.27094,147.066131 1677.27094,147.816781 L1677.27094,154.681801 C1677.27094,155.432456 1677.03111,156.029621 1676.55266,156.474501 C1676.07421,156.918179 1675.46145,157.140018 1674.7084,157.140018 L1641.1076,157.140018 L1641.1076,175.068218 L1672.4552,175.068218 C1673.20705,175.068218 1673.82101,175.305646 1674.29826,175.784098 C1674.77791,176.261352 1675.01654,176.877708 1675.01654,177.627158 L1675.01654,184.082068 C1675.01654,184.832723 1674.77791,185.431088 1674.29826,185.874768 C1673.82101,186.318446 1673.20705,186.541484 1672.4552,186.541484 L1641.1076,186.541484 L1641.1076,205.082384 L1675.5286,205.082384 C1676.28045,205.082384 1676.89441,205.305422 1677.37166,205.7491 C1677.85011,206.192778 1678.08994,206.78994 1678.08994,207.5418 L1678.08994,214.50754 C1678.08994,215.259394 1677.85011,215.85656 1677.37166,216.30024 C1676.89441,216.743918 1676.28045,216.967 1675.5286,216.967 L1629.53,216.967 L1629.53,216.967 Z M1583.6777,205.0824 C1589.34599,205.0824 1593.44341,203.81852 1595.9712,201.29315 C1598.49777,198.76658 1599.8288,194.56483 1599.9655,188.69265 C1600.1022,184.59283 1600.17055,182.03388 1600.17055,181.00863 C1600.17055,179.91622 1600.1022,177.38966 1599.9655,173.42773 C1599.8288,167.82779 1598.42942,163.71358 1595.76615,161.08393 C1593.10288,158.45544 1588.90113,157.13999 1583.16445,157.13999 L1570.66835,157.13999 L1570.66835,205.0824 L1583.67775,205.0824 L1583.6777,205.0824 Z M1558.6806,216.967 C1557.99829,216.967 1557.41672,216.727174 1556.93946,216.249921 C1556.46101,215.770269 1556.22358,215.191091 1556.22358,214.507581 L1556.22358,147.816781 C1556.22358,147.066126 1556.44422,146.450971 1556.8879,145.973721 C1557.33277,145.495268 1557.93114,145.256642 1558.6806,145.256642 L1583.6777,145.256642 C1603.8255,145.256642 1614.1032,154.545102 1614.5121,173.120842 C1614.6488,177.081562 1614.71835,179.744832 1614.71835,181.110642 C1614.71835,182.408102 1614.6488,185.037792 1614.5121,188.999712 C1614.2387,198.560372 1611.66297,205.612412 1606.77771,210.153512 C1601.89485,214.695812 1594.36551,216.967 1584.18971,216.967 L1558.68061,216.967 L1558.6806,216.967 Z M1489.4716,205.0824 C1495.13989,205.0824 1499.23731,203.81852 1501.7639,201.29315 C1504.29167,198.76658 1505.6227,194.56483 1505.7594,188.69265 C1505.8949,184.59283 1505.96445,182.03388 1505.96445,181.00863 C1505.96445,179.91622 1505.8949,177.38966 1505.7594,173.42773 C1505.6227,167.82779 1504.22332,163.71358 1501.55885,161.08393 C1498.89558,158.45544 1494.69503,157.13999 1488.95955,157.13999 L1476.46105,157.13999 L1476.46105,205.0824 L1489.47165,205.0824 L1489.4716,205.0824 Z M1464.4733,216.967 C1463.79099,216.967 1463.21182,216.727174 1462.73336,216.249921 C1462.25491,215.770269 1462.01628,215.191091 1462.01628,214.507581 L1462.01628,147.816781 C1462.01628,147.066126 1462.23692,146.450971 1462.6806,145.973721 C1463.12548,145.495268 1463.72384,145.256642 1464.4733,145.256642 L1489.4716,145.256642 C1509.6182,145.256642 1519.8959,154.545102 1520.306,173.120842 C1520.4427,177.081562 1520.51225,179.744832 1520.51225,181.110642 C1520.51225,182.408102 1520.4427,185.037792 1520.306,188.999712 C1520.0338,198.560372 1517.45567,205.612412 1512.57161,210.153512 C1507.68756,214.695812 1500.15941,216.967 1489.98241,216.967 L1464.47331,216.967 L1464.4733,216.967 Z M1408.0698,190.742 L1431.2214,190.742 L1419.645,159.1881 L1408.0698,190.742 Z M1387.6846,216.967 C1387.06825,216.967 1386.55742,216.761949 1386.14732,216.351847 C1385.73722,215.941745 1385.53217,215.429716 1385.53217,214.814567 L1385.73722,213.893635 L1410.32302,147.816835 C1411.00652,146.109275 1412.23563,145.256695 1414.01154,145.256695 L1425.27974,145.256695 C1427.05565,145.256695 1428.28596,146.109276 1428.96826,147.816835 L1453.55406,213.893635 L1453.76031,214.814567 C1453.76031,215.42972 1453.53727,215.941747 1453.09359,216.351847 C1452.64991,216.761949 1452.15347,216.967 1451.60787,216.967 L1442.48969,216.967 C1441.05673,216.967 1440.06625,216.317072 1439.51945,215.01961 L1434.80807,202.62541 L1404.48447,202.62541 L1399.77189,215.01961 C1399.22509,216.31707 1398.23581,216.967 1396.80045,216.967 L1387.68467,216.967 L1387.6846,216.967 Z M1348.6925,205.0824 C1354.36198,205.0824 1358.45941,203.81852 1360.9848,201.29315 C1363.51376,198.76658 1364.8448,194.56483 1364.9815,188.69265 C1365.1182,184.59283 1365.18655,182.03388 1365.18655,181.00863 C1365.18655,179.91622 1365.1182,177.38966 1364.9815,173.42773 C1364.8448,167.82779 1363.44422,163.71358 1360.78095,161.08393 C1358.11888,158.45544 1353.91713,157.13999 1348.18045,157.13999 L1335.68315,157.13999 L1335.68315,205.0824 L1348.69255,205.0824 L1348.6925,205.0824 Z M1323.6966,216.967 C1323.0131,216.967 1322.43272,216.727174 1321.95546,216.249921 C1321.47701,215.770269 1321.23838,215.191091 1321.23838,214.507581 L1321.23838,147.816781 C1321.23838,147.066126 1321.46022,146.450971 1321.9039,145.973721 C1322.34877,145.495268 1322.94594,145.256642 1323.6966,145.256642 L1348.6925,145.256642 C1368.8391,145.256642 1379.118,154.545102 1379.5281,173.120842 C1379.6648,177.081562 1379.73315,179.744832 1379.73315,181.110642 C1379.73315,182.408102 1379.6648,185.037792 1379.5281,188.999712 C1379.2547,198.560372 1376.67657,205.612412 1371.79371,210.153512 C1366.91085,214.695812 1359.38151,216.967 1349.20451,216.967 L1323.69661,216.967 L1323.6966,216.967 Z M1294.1309,216.967 C1293.44859,216.967 1292.86702,216.727174 1292.38976,216.249921 C1291.91131,215.770269 1291.67388,215.191091 1291.67388,214.507581 L1291.67388,147.714881 C1291.67388,146.963027 1291.91131,146.367061 1292.38976,145.923381 C1292.86701,145.478504 1293.44859,145.256665 1294.1309,145.256665 L1303.96616,145.256665 C1304.71801,145.256665 1305.31518,145.478504 1305.75886,145.923381 C1306.20254,146.367059 1306.42558,146.963031 1306.42558,147.714881 L1306.42558,214.507581 C1306.42558,215.191085 1306.20254,215.770261 1305.75886,216.249921 C1305.31518,216.727175 1304.71802,216.967 1303.96616,216.967 L1294.1309,216.967 Z M1251.9671,217.98986 C1245.82036,217.98986 1240.5622,217.068928 1236.1902,215.22467 C1231.82057,213.38041 1228.50738,210.95697 1226.25301,207.95195 C1223.99985,204.94573 1222.80431,201.66851 1222.66881,198.11669 C1222.66881,197.569887 1222.87266,197.07585 1223.28156,196.63097 C1223.69167,196.187292 1224.20489,195.965453 1224.81884,195.965453 L1234.14088,195.965453 C1234.89273,195.965453 1235.50668,196.136929 1235.98513,196.477481 C1236.46239,196.819233 1236.90607,197.297686 1237.31617,197.912841 C1237.99967,200.233161 1239.55255,202.180541 1241.97838,203.751401 C1244.40182,205.322261 1247.7318,206.107691 1251.96713,206.107691 C1256.74687,206.107691 1260.34906,205.305473 1262.77493,203.699841 C1265.19837,202.095401 1266.4107,199.892601 1266.4107,197.092641 C1266.4107,195.248381 1265.79554,193.711091 1264.56763,192.481991 C1263.33732,191.254081 1261.47748,190.177261 1258.98448,189.255131 C1256.4915,188.333 1252.78618,187.222611 1247.86739,185.925151 C1239.80924,184.013741 1233.90229,181.485971 1230.14669,178.344251 C1226.38861,175.203731 1224.51197,170.696201 1224.51197,164.822851 C1224.51197,160.860931 1225.60439,157.327091 1227.79039,154.220151 C1229.97401,151.113211 1233.10014,148.670581 1237.1628,146.895871 C1241.22665,145.119961 1245.95721,144.231401 1251.3521,144.231401 C1257.01919,144.231401 1261.92119,145.220683 1266.0522,147.202841 C1270.1844,149.182601 1273.32612,151.658811 1275.47856,154.629051 C1277.6286,157.601691 1278.77137,160.553951 1278.90807,163.490621 C1278.90807,164.036225 1278.70421,164.532661 1278.29411,164.977541 C1277.88401,165.421219 1277.37198,165.643058 1276.75803,165.643058 L1267.02589,165.643058 C1265.52338,165.643058 1264.49812,165.027905 1263.95132,163.797598 C1263.61077,161.613988 1262.27853,159.786508 1259.95702,158.317578 C1257.63551,156.848648 1254.76599,156.114778 1251.35207,156.114778 C1247.5952,156.114778 1244.64174,156.831857 1242.4905,158.267218 C1240.33926,159.700178 1239.26364,161.783068 1239.26364,164.515878 C1239.26364,166.360138 1239.80924,167.896228 1240.90165,169.125328 C1241.99526,170.355638 1243.70282,171.430058 1246.02433,172.352188 C1248.34584,173.275518 1251.72619,174.315168 1256.16533,175.478318 C1262.24372,176.844128 1267.07623,178.379008 1270.66283,180.086568 C1274.24823,181.794128 1276.89471,183.945368 1278.60107,186.541478 C1280.30863,189.136398 1281.16361,192.447188 1281.16361,196.477468 C1281.16361,200.916648 1279.95129,204.758658 1277.52545,208.002268 C1275.10201,211.245918 1271.68689,213.722118 1267.28125,215.429678 C1262.87685,217.137238 1257.77095,217.98986 1251.96715,217.98986 L1251.9671,217.98986 Z M1187.7765,178.24357 C1191.87273,178.24357 1194.9461,177.338217 1196.99541,175.52873 C1199.04472,173.71924 1200.06878,171.07157 1200.06878,167.58809 C1200.06878,164.10702 1199.04472,161.42456 1196.99541,159.54673 C1194.9461,157.66889 1191.87273,156.72997 1187.7765,156.72997 L1173.5356,156.72997 L1173.5356,178.24357 L1187.7765,178.24357 L1187.7765,178.24357 Z M1161.5503,216.967083 C1160.8668,216.967083 1160.28642,216.727234 1159.80916,216.249981 C1159.33071,215.770329 1159.09208,215.191151 1159.09208,214.507641 L1159.09208,147.816841 C1159.09208,147.066186 1159.31392,146.451031 1159.7576,145.973781 C1160.20247,145.495328 1160.79844,145.256702 1161.5503,145.256702 L1188.0822,145.256702 C1196.4833,145.256702 1203.0569,147.202892 1207.8031,151.096462 C1212.55045,154.988832 1214.92233,160.520422 1214.92233,167.692462 C1214.92233,172.677242 1213.728,176.861002 1211.33813,180.240162 C1208.94587,183.620512 1205.60149,186.063132 1201.29783,187.564442 L1216.15263,213.687442 C1216.35768,214.097544 1216.45841,214.474071 1216.45841,214.814622 C1216.45841,215.429775 1216.23777,215.941802 1215.79409,216.351902 C1215.34921,216.762004 1214.85517,216.967083 1214.30837,216.967083 L1204.88321,216.967083 C1203.7896,216.967083 1202.93702,216.710441 1202.32187,216.197214 C1201.70791,215.686385 1201.16111,215.019664 1200.68386,214.199464 L1187.57016,189.921864 L1173.53556,189.921864 L1173.53556,214.507664 C1173.53556,215.191168 1173.29693,215.770344 1172.81968,216.250004 C1172.34003,216.727258 1171.72607,216.967083 1170.97422,216.967083 L1161.55026,216.967083 L1161.5503,216.967083 Z M1098.8958,216.96706 C1098.21349,216.96706 1097.63192,216.727234 1097.15466,216.249981 C1096.67621,215.770329 1096.43878,215.191151 1096.43878,214.507641 L1096.43878,147.816841 C1096.43878,147.066186 1096.65942,146.451031 1097.1031,145.973781 C1097.54797,145.495328 1098.14514,145.256702 1098.8958,145.256702 L1144.0742,145.256702 C1144.82485,145.256702 1145.44001,145.495329 1145.91846,145.973781 C1146.39571,146.451035 1146.63554,147.066191 1146.63554,147.816841 L1146.63554,154.681861 C1146.63554,155.432516 1146.39571,156.029681 1145.91846,156.474561 C1145.44,156.918239 1144.82485,157.140078 1144.0742,157.140078 L1110.4734,157.140078 L1110.4734,175.068278 L1141.821,175.068278 C1142.57045,175.068278 1143.18681,175.305706 1143.66406,175.784158 C1144.14251,176.261412 1144.37994,176.877768 1144.37994,177.627218 L1144.37994,184.082128 C1144.37994,184.832783 1144.14251,185.431148 1143.66406,185.874828 C1143.1868,186.318506 1142.57045,186.541544 1141.821,186.541544 L1110.4734,186.541544 L1110.4734,205.082444 L1144.8932,205.082444 C1145.64505,205.082444 1146.26021,205.305482 1146.73746,205.74916 C1147.21591,206.192838 1147.45454,206.79 1147.45454,207.54186 L1147.45454,214.5076 C1147.45454,215.259454 1147.21591,215.85662 1146.73746,216.3003 C1146.2602,216.743978 1145.64505,216.96706 1144.8932,216.96706 L1098.8958,216.96706 L1098.8958,216.96706 Z M1049.355,216.96706 C1047.30689,216.96706 1045.97465,216.010155 1045.3607,214.09754 L1023.4358,148.32884 C1023.36865,148.123789 1023.33507,147.816812 1023.33507,147.406709 C1023.33507,146.792755 1023.54012,146.280729 1023.94903,145.870629 C1024.35913,145.460527 1024.87236,145.256675 1025.48511,145.256675 L1034.60329,145.256675 C1035.49064,145.256675 1036.20892,145.495302 1036.75573,145.973754 C1037.30013,146.451008 1037.67666,146.963036 1037.88171,147.511034 L1054.98971,199.960934 L1072.19961,147.511034 C1072.33511,146.963032 1072.67806,146.451004 1073.22367,145.973754 C1073.77167,145.495301 1074.48755,145.256675 1075.37491,145.256675 L1084.59502,145.256675 C1085.14302,145.256675 1085.63706,145.460527 1086.08074,145.870629 C1086.52561,146.280731 1086.74625,146.79276 1086.74625,147.406709 L1086.5424,148.32884 L1064.7206,214.09754 C1064.0371,216.01015 1062.70606,216.96706 1060.7263,216.96706 L1049.355,216.96706 L1049.355,216.96706 Z M1001.349,216.96706 C1000.6655,216.96706 1000.08632,216.727234 999.60906,216.249981 C999.130607,215.770329 998.891981,215.191151 998.891981,214.507641 L998.891981,147.714941 C998.891981,146.963087 999.130608,146.367121 999.60906,145.923441 C1000.08631,145.478564 1000.66549,145.256725 1001.349,145.256725 L1011.18306,145.256725 C1011.93611,145.256725 1012.53208,145.478564 1012.97576,145.923441 C1013.41944,146.367119 1013.64248,146.963091 1013.64248,147.714941 L1013.64248,214.507641 C1013.64248,215.191145 1013.41944,215.770321 1012.97576,216.249981 C1012.53208,216.727235 1011.93611,216.96706 1011.18306,216.96706 L1001.349,216.96706 Z M930.0907,216.967081 C929.407196,216.967081 928.82802,216.727234 928.35076,216.249981 C927.871108,215.770329 927.632481,215.191151 927.632481,214.507641 L927.632481,147.816841 C927.632481,147.066186 927.853121,146.451031 928.297998,145.973781 C928.742875,145.495328 929.340038,145.256702 930.090698,145.256702 L938.081698,145.256702 C939.379158,145.256702 940.369638,145.837081 941.051938,146.996642 L970.351438,192.482042 L970.351438,147.816842 C970.351438,147.066187 970.572078,146.451032 971.016955,145.973782 C971.460633,145.495329 972.058995,145.256702 972.809655,145.256702 L981.619665,145.256702 C982.371519,145.256702 982.985475,145.49533 983.463925,145.973782 C983.942378,146.451036 984.181004,147.066192 984.181004,147.816842 L984.181004,214.405742 C984.181004,215.156397 983.942377,215.770352 983.463925,216.250002 C982.985472,216.727256 982.405095,216.967081 981.722785,216.967081 L973.628665,216.967081 C972.264055,216.967081 971.238795,216.385503 970.555295,215.224741 L941.360095,170.764641 L941.360095,214.507641 C941.360095,215.191145 941.138256,215.770321 940.694578,216.249981 C940.2509,216.727235 939.652538,216.967081 938.901878,216.967081 L930.090678,216.967081 L930.0907,216.967081 Z M884.3403,217.98992 C875.05304,217.98992 867.8463,215.63483 862.7236,210.92225 C857.60332,206.20967 855.04078,199.07365 855.04078,189.51175 L855.04078,147.81685 C855.04078,147.066195 855.262619,146.45104 855.706297,145.97379 C856.149975,145.495337 856.749537,145.256711 857.498997,145.256711 L866.924157,145.256711 C867.676011,145.256711 868.289967,145.495338 868.767217,145.97379 C869.246869,146.451044 869.485496,147.0662 869.485496,147.81685 L869.485496,189.51175 C869.485496,194.90663 870.766166,198.96928 873.327506,201.70335 C875.887646,204.43497 879.525806,205.79958 884.238406,205.79958 C888.949786,205.79958 892.586746,204.43497 895.148106,201.70335 C897.708246,198.96933 898.987716,194.90668 898.987716,189.51175 L898.987716,147.81685 C898.987716,147.066195 899.227542,146.45104 899.705995,145.97379 C900.184448,145.495337 900.799605,145.256711 901.550255,145.256711 L910.975415,145.256711 C911.72607,145.256711 912.323235,145.495338 912.768115,145.97379 C913.211793,146.451044 913.432433,147.0662 913.432433,147.81685 L913.432433,189.51175 C913.432433,199.07361 910.890283,206.20965 905.801173,210.92225 C900.713263,215.63483 893.559273,217.98992 884.340373,217.98992 L884.3403,217.98992 Z M808.5733,196.06742 C805.29488,196.06742 802.47693,194.88987 800.12183,192.53478 C797.76554,190.17729 796.5868,187.36054 796.5868,184.08212 C796.5868,180.8037 797.76554,177.98694 800.12183,175.63065 C802.47692,173.27556 805.29488,172.09562 808.5733,172.09562 C811.85172,172.09562 814.66848,173.27556 817.02477,175.63065 C819.38106,177.98694 820.5586,180.8037 820.5586,184.08212 C820.5586,187.36054 819.38105,190.1773 817.02477,192.53478 C814.66848,194.88987 811.85172,196.06742 808.5733,196.06742 Z M733.8316,217.98992 C724.06469,217.98992 716.3987,215.63483 710.8323,210.92225 C705.26714,206.20967 702.31248,199.31225 701.97193,190.22765 C701.90238,188.38459 701.868805,185.37957 701.868805,181.21379 C701.868805,176.97966 701.902381,173.90629 701.97193,171.99488 C702.312483,163.11533 705.30191,156.26948 710.93542,151.45378 C716.57013,146.64047 724.20142,144.23142 733.83162,144.23142 C739.90881,144.23142 745.35642,145.220702 750.17092,147.20286 C754.98543,149.18262 758.79266,152.05214 761.59382,155.80901 C764.39259,159.56348 765.86152,164.00266 765.99942,169.12531 C765.99942,169.739264 765.776382,170.25249 765.332704,170.66259 C764.889026,171.071493 764.359011,171.276544 763.745054,171.276544 L749.197254,171.276544 C748.241548,171.276544 747.541254,171.08948 747.097574,170.712953 C746.652697,170.338825 746.260582,169.637333 745.920024,168.613273 C744.964318,165.266503 743.510974,162.927003 741.564784,161.597163 C739.618594,160.264933 737.040464,159.598213 733.831594,159.598213 C726.112794,159.598213 722.118494,163.900693 721.845094,172.505613 C721.777943,174.349873 721.741969,177.183413 721.741969,181.008643 C721.741969,184.832663 721.777943,187.735763 721.845094,189.715523 C722.118496,198.322873 726.112794,202.625323 733.831594,202.625323 C736.972114,202.625323 739.550244,201.941819 741.564784,200.576013 C743.579324,199.209003 745.031464,196.887493 745.920024,193.609073 C746.192226,192.585013 746.567554,191.884723 747.046004,191.508193 C747.523258,191.132865 748.241534,190.945801 749.197244,190.945801 L763.745044,190.945801 C764.358998,190.945801 764.889014,191.150852 765.332694,191.559755 C765.776372,191.969857 765.99942,192.481886 765.99942,193.097035 C765.86151,198.219715 764.39258,202.658895 761.59381,206.414535 C758.79264,210.170205 754.98541,213.039725 750.17091,215.019485 C745.3564,217.000445 739.90871,217.98992 733.83161,217.98992 L733.8316,217.98992 Z M661.1476,217.990004 C651.24399,217.990004 643.4928,215.58327 637.8929,210.76756 C632.29416,205.95425 629.32152,199.07366 628.98097,190.12576 C628.911421,188.21435 628.877845,185.1074 628.877845,180.80373 C628.877845,176.50125 628.911421,173.35953 628.98097,171.37857 C629.254372,162.77362 632.2402,156.09807 637.94446,151.35187 C643.64752,146.60452 651.38066,144.23144 661.14766,144.23144 C667.7045,144.23144 673.42316,145.29027 678.30716,147.40674 C683.19002,149.5244 686.91211,152.23923 689.47346,155.55243 C692.0336,158.86443 693.38142,162.26156 693.51932,165.74503 C693.51932,166.360183 693.297481,166.889 692.852604,167.33268 C692.408926,167.776358 691.88011,167.998197 691.266154,167.998197 L675.386054,167.998197 C674.704948,167.998197 674.176134,167.879483 673.799604,167.640856 C673.423077,167.399831 673.065737,167.04249 672.722784,166.564036 C671.902579,164.652626 670.589534,163.013416 668.778844,161.647606 C666.969354,160.281796 664.424804,159.598296 661.147584,159.598296 C653.226134,159.598296 649.127484,163.696916 648.855284,171.891796 C648.785735,173.804406 648.75096,176.739876 648.75096,180.701806 C648.75096,184.663726 648.785735,187.632776 648.855284,189.614936 C649.127486,198.287046 653.293264,202.625536 661.351384,202.625536 C665.313304,202.625536 668.453824,201.632657 670.776544,199.652896 C673.099254,197.673136 674.260014,194.668116 674.260014,190.637836 L674.260014,188.794776 L665.143034,188.794776 C664.39118,188.794776 663.760434,188.538162 663.247214,188.026134 C662.733987,187.514106 662.478572,186.882164 662.478572,186.131514 L662.478572,178.140514 C662.478572,177.389859 662.733987,176.756714 663.247214,176.244694 C663.760441,175.733865 664.391184,175.47845 665.143034,175.47845 L691.161734,175.47845 C691.914787,175.47845 692.546724,175.733865 693.058754,176.244694 C693.570782,176.756722 693.827396,177.389864 693.827396,178.140514 L693.827396,190.023914 C693.827396,195.828904 692.477176,200.832914 689.779136,205.031014 C687.082296,209.231564 683.273856,212.441634 678.357436,214.660024 C673.439806,216.879614 667.704336,217.990004 661.147536,217.990004 L661.1476,217.990004 Z M593.687,177.62722 C596.48817,177.62722 598.69097,176.894552 600.2954,175.42442 C601.89984,173.95788 602.70205,171.78866 602.70205,168.92034 C602.70205,166.25587 601.968183,164.10703 600.50045,162.46662 C599.03152,160.82741 596.76036,160.00721 593.687,160.00721 L582.2137,160.00721 L582.2137,177.62722 L593.687,177.62722 L593.687,177.62722 Z M565.2089,216.96702 C564.525396,216.96702 563.92703,216.710406 563.4162,216.197179 C562.904172,215.68635 562.647558,215.086789 562.647558,214.405679 L562.647558,147.918779 C562.647558,147.168124 562.887384,146.536179 563.364637,146.024159 C563.84309,145.51333 564.457047,145.256716 565.208897,145.256716 L594.199097,145.256716 C603.078647,145.256716 610.044397,147.271256 615.098697,151.300326 C620.151827,155.329406 622.679597,161.237516 622.679597,169.023426 C622.679597,176.808176 620.151827,182.629926 615.098697,186.489926 C610.044367,190.348726 603.078597,192.278126 594.199097,192.278126 L582.521997,192.278126 L582.521997,214.405626 C582.521997,215.086732 582.282171,215.686296 581.803718,216.197126 C581.326464,216.710353 580.711308,216.96702 579.960658,216.96702 L565.208958,216.96702 L565.2089,216.96702 Z M504.8183,216.96702 C504.134796,216.96702 503.53763,216.710406 503.0256,216.197179 C502.512373,215.68635 502.256958,215.086789 502.256958,214.405679 L502.256958,147.816779 C502.256958,147.066124 502.512373,146.450969 503.0256,145.973719 C503.537628,145.495266 504.13479,145.25664 504.8183,145.25664 L519.1587,145.25664 C519.911753,145.25664 520.52571,145.495267 521.00416,145.973719 C521.482613,146.450973 521.721239,147.066129 521.721239,147.816779 L521.721239,200.883079 L552.453739,200.883079 C553.204394,200.883079 553.836339,201.138494 554.349559,201.651721 C554.861587,202.163749 555.118201,202.795691 555.118201,203.546341 L555.118201,214.405641 C555.118201,215.156296 554.861587,215.770251 554.349559,216.249901 C553.836332,216.727155 553.204389,216.96702 552.453739,216.96702 L504.818339,216.96702 L504.8183,216.96702 Z M459.1794,217.98988 C449.48084,217.98988 441.882,215.63479 436.3851,210.92221 C430.88709,206.20963 428.13869,199.14081 428.13869,189.71561 L428.13869,147.91871 C428.13869,147.168055 428.378516,146.53611 428.855769,146.02409 C429.333023,145.513261 429.948179,145.256647 430.698829,145.256647 L444.734629,145.256647 C445.485284,145.256647 446.117229,145.513261 446.629249,146.02409 C447.142476,146.536118 447.397891,147.16806 447.397891,147.91871 L447.397891,189.51171 C447.397891,193.74464 448.403961,196.92113 450.419701,199.03999 C452.434241,201.15525 455.319341,202.21529 459.076221,202.21529 C462.831891,202.21529 465.718201,201.13847 467.732741,198.98603 C469.747281,196.83599 470.754551,193.67748 470.754551,189.51171 L470.754551,147.91871 C470.754551,147.168055 471.009966,146.53611 471.523193,146.02409 C472.035221,145.513261 472.667163,145.256647 473.417813,145.256647 L487.350513,145.256647 C488.101168,145.256647 488.734313,145.513261 489.246333,146.02409 C489.757162,146.536118 490.013776,147.16806 490.013776,147.91871 L490.013776,189.71561 C490.013776,199.14077 487.280956,206.20961 481.818926,210.92221 C476.354496,215.63479 468.808326,217.98988 459.179326,217.98988 L459.1794,217.98988 Z" id="_58309840" fill="#FFA100" fill-rule="nonzero"></path>
        </g>
    </g>
</svg>