<svg xmlns="http://www.w3.org/2000/svg" xmlns:xlink="http://www.w3.org/1999/xlink" width="24px" height="24px" viewBox="0 0 24 24"><title>Iconos/linkedin</title><desc>Created with Sketch.</desc><g id="Iconos/linkedin" stroke="none" stroke-width="1" fill="none" fill-rule="evenodd"><path d="M20.3854167,2 C20.8368078,2 21.2187484,2.14756797 21.53125,2.44270833 C21.8437516,2.7378487 22,3.11110885 22,3.5625 L22,20.28125 C22,20.7326411 21.8437516,21.1319427 21.53125,21.4791667 C21.2187484,21.8263906 20.8368078,22 20.3854167,22 L3.71875,22 C3.26735885,22 2.86805729,21.8263906 2.52083333,21.4791667 C2.17360937,21.1319427 2,20.7326411 2,20.28125 L2,3.5625 C2,3.11110885 2.16492891,2.7378487 2.49479167,2.44270833 C2.82465443,2.14756797 3.23263646,2 3.71875,2 L20.3854167,2 Z M8.19791667,18.6666667 L8.19791667,9.76041667 L5.33333333,9.76041667 L5.33333333,18.6666667 L8.19791667,18.6666667 Z M5.75,7.98958333 C6.02777917,8.2673625 6.39235885,8.40625 6.84375,8.40625 C7.29514115,8.40625 7.6684013,8.25868203 7.96354167,7.96354167 C8.25868203,7.6684013 8.40625,7.31250208 8.40625,6.89583333 C8.40625,6.44444219 8.2673625,6.07118203 7.98958333,5.77604167 C7.71180417,5.4809013 7.34722448,5.33333333 6.89583333,5.33333333 C6.44444219,5.33333333 6.07118203,5.4809013 5.77604167,5.77604167 C5.4809013,6.07118203 5.33333333,6.44444219 5.33333333,6.89583333 C5.33333333,7.31250208 5.47222083,7.67708177 5.75,7.98958333 Z M18.6666667,18.6666667 L18.6666667,13.4583333 C18.6666667,12.1736047 18.3628503,11.2013922 17.7552083,10.5416667 C17.1475664,9.88194115 16.3576438,9.55208333 15.3854167,9.55208333 C14.3437448,9.55208333 13.4756979,10.0381896 12.78125,11.0104167 L12.78125,9.76041667 L9.91666667,9.76041667 L9.91666667,18.6666667 L12.78125,18.6666667 L12.78125,13.6145833 C12.78125,13.2673594 12.8159719,13.0243062 12.8854167,12.8854167 C13.1631958,12.1909687 13.6493021,11.84375 14.34375,11.84375 C15.3159771,11.84375 15.8020833,12.4861047 15.8020833,13.7708333 L15.8020833,18.6666667 L18.6666667,18.6666667 Z" id="linkedin" fill="#000000" fill-rule="nonzero"></path></g></svg>