<svg xmlns="http://www.w3.org/2000/svg" xmlns:xlink="http://www.w3.org/1999/xlink" width="24px" height="24px" viewBox="0 0 24 24"><title>Iconos/youtube</title><desc>Created with Sketch.</desc><g id="Iconos/youtube" stroke="none" stroke-width="1" fill="none" fill-rule="evenodd"><path d="M9.95454545,14.9545645 L9.95454545,9.04543548 L15.1818182,12.0001129 L9.95454545,14.9545645 Z M21.5820455,7.18614516 C21.3520455,6.32559677 20.6743182,5.64795161 19.8138636,5.41796774 C18.2542045,5 12,5 12,5 C12,5 5.74579545,5 4.18613636,5.41796774 C3.32568182,5.64795161 2.64795455,6.32559677 2.41795455,7.18614516 C2,8.74579032 2,12 2,12 C2,12 2,15.2540968 2.41795455,16.8138548 C2.64795455,17.6744032 3.32568182,18.3520484 4.18613636,18.5821452 C5.74579545,19 12,19 12,19 C12,19 18.2542045,19 19.8138636,18.5821452 C20.6743182,18.3520484 21.3520455,17.6744032 21.5820455,16.8138548 C22,15.2540968 22,12 22,12 C22,12 22,8.74579032 21.5820455,7.18614516 L21.5820455,7.18614516 Z" id="youtube" fill="#000000" fill-rule="nonzero"></path></g></svg>